<svg xmlns="http://www.w3.org/2000/svg" width="25" height="24" fill="none" viewBox="0 0 25 24">
  <path fill="#FFF" d="M16.681 20.85H7.817a5.042 5.042 0 0 1-3.642-1.48A5.962 5.962 0 0 1 2.5 15.093v-6.18A5.438 5.438 0 0 1 7.832 3.15h8.836A5.438 5.438 0 0 1 22 8.913v6.177a5.959 5.959 0 0 1-1.675 4.275 5.04 5.04 0 0 1-3.644 1.485Zm-8.851-1.5h8.849a3.58 3.58 0 0 0 2.587-1.043 4.475 4.475 0 0 0 1.234-3.213v-6.18c0-2.47-1.611-4.264-3.832-4.264H7.832C5.611 4.65 4 6.443 4 8.913v6.177a4.475 4.475 0 0 0 1.234 3.213 3.576 3.576 0 0 0 2.585 1.043l.011.004Z"/>
  <path fill="#FFF" d="M12.266 13.363a2.808 2.808 0 0 1-1.75-.613L6.478 9.494a.75.75 0 1 1 .94-1.168l4.034 3.252a1.312 1.312 0 0 0 1.637 0l3.99-3.246a.75.75 0 0 1 .948 1.164l-4 3.252a2.83 2.83 0 0 1-1.761.615Z"/>
  <path fill="#FFF" d="M17.556 15.842a.744.744 0 0 1-.555-.246l-3.231-3.548a.749.749 0 1 1 1.109-1.01l3.23 3.549a.75.75 0 0 1-.553 1.255Zm-10.611 0a.75.75 0 0 1-.551-1.258l3.267-3.548a.75.75 0 0 1 1.1 1.016l-3.268 3.547a.742.742 0 0 1-.543.242h-.005Z"/>
</svg>
